<?xml version="1.0" standalone="no"?>
<!DOCTYPE svg PUBLIC "-//W3C//DTD SVG 20010904//EN"
 "http://www.w3.org/TR/2001/REC-SVG-20010904/DTD/svg10.dtd">
<svg version="1.0" xmlns="http://www.w3.org/2000/svg"
 width="762.000000pt" height="762.000000pt" viewBox="0 0 762.000000 762.000000"
 preserveAspectRatio="xMidYMid meet">
<metadata>
Created by potrace 1.14, written by Peter Selinger 2001-2017
</metadata>
<g transform="translate(0.000000,762.000000) scale(0.100000,-0.100000)"
fill="#000000" stroke="none">
<path d="M3035 7560 c-61 -31 -110 -59 -252 -145 -85 -51 -218 -140 -221 -147
-2 -4 -8 -8 -14 -8 -9 0 -161 -117 -228 -177 -14 -12 -36 -31 -50 -43 -48 -41
-175 -155 -199 -179 -14 -13 -75 -49 -135 -80 -112 -57 -157 -82 -166 -91 -14
-14 -102 -70 -110 -70 -6 0 -10 -3 -10 -8 0 -4 -18 -18 -40 -32 -22 -14 -40
-28 -40 -31 0 -19 -78 -28 -285 -34 -238 -6 -331 -11 -400 -19 -74 -9 -120
-16 -145 -21 -14 -3 -38 -8 -55 -10 -41 -7 -90 -23 -147 -47 -45 -19 -58 -32
-40 -40 4 -1 27 -26 52 -54 193 -216 218 -242 380 -397 57 -54 109 -97 118
-95 8 2 24 30 36 64 27 73 84 179 137 253 21 30 39 59 39 66 0 17 -69 52 -120
61 -57 10 -157 6 -182 -7 -27 -15 -22 -40 18 -92 38 -49 63 -65 75 -46 9 16
29 2 29 -21 0 -28 -25 -48 -54 -43 -14 3 -26 10 -26 15 0 5 -4 7 -9 4 -10 -6
-97 76 -139 133 l-26 33 23 19 c22 18 106 47 161 56 74 12 207 9 254 -6 54
-17 106 -55 106 -78 0 -8 -23 -49 -52 -91 -147 -217 -237 -410 -253 -542 -2
-14 -4 -25 -5 -25 -1 0 -3 -14 -5 -32 -7 -47 -32 -116 -82 -222 -68 -145 -136
-306 -183 -432 -54 -145 -58 -159 -84 -264 -15 -63 -15 -63 -17 -67 -1 -2 -2
-14 -4 -28 -2 -14 -8 -56 -13 -95 -10 -70 -8 -330 3 -415 22 -174 42 -305 46
-305 1 0 2 -11 3 -25 2 -25 11 -72 22 -120 3 -14 7 -32 8 -40 2 -8 9 -35 15
-60 7 -25 13 -46 12 -47 0 -2 15 -47 35 -100 19 -54 36 -102 37 -108 1 -5 4
-12 7 -15 3 -3 26 -49 53 -102 79 -160 153 -254 319 -403 18 -16 47 -57 65
-90 37 -71 98 -247 108 -315 1 -8 5 -26 8 -40 17 -78 29 -140 32 -176 2 -23 6
-54 9 -69 7 -39 18 -186 21 -285 3 -104 13 -180 40 -305 11 -53 39 -149 67
-235 18 -52 33 -97 33 -100 2 -5 7 -17 32 -80 16 -39 18 -128 4 -178 -5 -18
-10 -35 -10 -37 1 -12 -14 -76 -36 -155 -33 -117 -35 -134 -24 -173 13 -46 53
-85 119 -114 93 -42 145 -18 171 77 6 25 20 54 31 66 22 24 30 67 27 144 -4
113 -1 247 6 310 9 82 9 186 -1 201 -24 39 -24 749 0 864 3 11 5 28 5 37 1 15
8 13 51 -13 28 -17 73 -37 100 -44 57 -15 57 -15 68 -15 8 0 7 -221 -2 -380
-7 -126 -7 -299 0 -350 12 -80 6 -243 -11 -330 -9 -45 -13 -67 -19 -106 -4
-22 -14 -64 -22 -94 -9 -30 -18 -87 -19 -126 -1 -40 -6 -77 -9 -83 -4 -6 -9
-19 -11 -28 -2 -10 -10 -38 -17 -63 -17 -55 -11 -91 23 -133 32 -39 119 -88
166 -93 41 -4 98 28 155 88 43 45 45 52 19 94 -11 19 -19 51 -20 86 0 31 -5
67 -9 80 -20 57 3 199 43 262 21 33 34 107 50 286 13 147 35 263 62 330 3 8 7
20 8 25 3 11 43 117 58 155 6 14 11 27 11 30 1 3 4 10 7 15 4 6 10 26 14 45 4
19 10 40 13 45 4 6 7 16 8 23 2 11 10 39 46 160 5 17 13 32 16 32 4 0 29 -53
57 -118 27 -64 75 -155 106 -202 l57 -85 0 -110 c1 -60 4 -132 8 -160 13 -104
14 -141 19 -548 5 -408 4 -419 -16 -459 -22 -42 -27 -59 -36 -120 -12 -81 47
-140 141 -139 115 1 172 34 213 126 9 22 23 44 30 48 8 5 13 32 13 75 1 98 3
105 42 144 28 29 39 52 53 110 10 40 20 78 24 83 3 6 6 12 7 15 7 35 66 149
113 215 58 84 116 160 124 163 4 2 7 8 7 12 0 5 26 51 58 102 32 51 76 129 96
173 63 135 80 168 107 210 14 22 55 90 91 150 146 245 149 256 143 424 -2 69
-6 142 -9 161 -11 84 -37 220 -46 244 -5 14 -8 26 -5 26 2 0 -1 15 -6 33 -5
17 -12 46 -14 62 -3 17 -8 42 -11 56 -4 19 10 54 50 130 50 96 133 276 140
309 1 3 7 14 13 25 6 11 11 25 12 30 1 6 10 37 21 71 11 33 22 69 25 80 2 10
8 34 14 52 5 17 8 32 5 32 -3 0 0 8 5 18 6 11 13 41 17 68 3 27 8 52 10 56 17
27 25 348 11 433 -20 127 -47 236 -88 358 -54 162 -138 314 -225 407 -73 78
-74 81 -61 105 18 33 77 96 128 136 24 19 52 42 63 52 11 9 26 17 33 17 7 0
13 5 13 10 0 6 7 10 15 10 8 0 15 5 15 12 0 6 3 9 6 5 3 -3 26 5 51 19 25 13
49 21 54 19 4 -3 10 -1 13 4 14 22 157 37 271 27 78 -6 198 -56 285 -119 30
-22 92 -78 137 -123 l82 -83 273 0 c150 1 277 3 281 6 4 2 -16 23 -45 46 -29
23 -60 49 -69 59 -9 10 -20 18 -23 18 -4 0 -14 7 -23 15 -8 8 -18 13 -22 11
-4 -3 -15 6 -25 20 -11 13 -25 24 -32 24 -7 0 -19 10 -25 23 -32 58 -5 117 54
117 36 0 54 -12 132 -82 29 -27 56 -48 61 -48 5 0 15 -9 22 -20 7 -11 17 -20
23 -20 6 0 22 -9 37 -20 l25 -20 28 32 c32 38 35 51 14 72 -8 8 -15 19 -15 24
0 6 -3 12 -7 14 -12 5 -53 66 -53 77 0 6 -8 15 -17 20 -10 6 -14 11 -9 11 4 0
-8 20 -28 44 -20 24 -36 47 -36 51 0 3 -8 15 -19 26 -13 14 -17 30 -14 55 5
48 23 64 71 64 39 0 62 -16 75 -52 4 -10 11 -18 17 -18 6 0 9 -4 6 -9 -3 -4 3
-16 14 -26 11 -10 17 -21 15 -25 -3 -4 2 -10 10 -14 8 -3 15 -12 15 -21 0 -8
3 -15 8 -15 4 0 16 -17 27 -37 11 -20 25 -42 30 -48 6 -6 15 -20 21 -30 13
-22 66 -24 90 -4 7 6 18 8 24 4 13 -8 12 -42 13 362 2 314 4 354 19 369 23 23
59 24 86 0 l22 -19 0 -354 c0 -229 4 -353 10 -353 18 0 25 -2 41 -10 15 -9 49
18 49 39 0 5 3 11 8 13 11 5 62 75 62 86 0 6 3 12 8 14 9 4 52 65 52 74 0 30
82 44 115 21 28 -21 29 -92 2 -114 -12 -10 -29 -31 -37 -48 -18 -36 -20 -39
-60 -86 -16 -20 -30 -42 -30 -48 0 -6 -4 -11 -10 -11 -16 0 -11 -13 21 -50 18
-22 32 -31 37 -24 4 6 43 28 87 50 44 21 83 43 86 48 4 5 25 11 47 13 34 3 43
0 60 -22 14 -18 19 -35 15 -58 -5 -31 -28 -68 -42 -65 -7 2 -58 -19 -81 -33
-8 -5 -26 -15 -40 -21 -14 -7 -27 -15 -30 -18 -3 -3 -14 -10 -25 -16 -11 -6
-20 -22 -20 -35 l0 -24 242 -2 c134 -1 245 2 248 7 3 5 2 17 -3 27 -5 10 -20
52 -33 93 -39 125 -125 319 -198 445 -31 54 -134 216 -153 240 -165 212 -196
248 -334 388 -174 178 -390 340 -574 432 -69 35 -220 102 -238 106 -21 4 -30
7 -64 18 -42 14 -51 16 -213 47 -60 12 -282 10 -360 -3 -288 -47 -553 -205
-745 -442 -19 -23 -40 -48 -45 -54 -15 -16 -135 -186 -135 -191 0 -2 -22 -41
-48 -87 -69 -121 -143 -307 -159 -399 -7 -45 -11 -65 -13 -65 -6 0 -12 -86
-13 -186 l-2 -117 -25 9 c-14 5 -34 14 -45 19 -24 10 -100 34 -100 31 0 -1
-12 2 -26 7 -14 6 -41 13 -60 16 -19 3 -45 9 -59 12 -34 9 -297 10 -340 2
-105 -21 -146 -31 -157 -40 -7 -6 -13 -8 -13 -4 0 12 -200 -69 -303 -123 -42
-23 -81 -41 -86 -41 -4 0 -20 28 -34 63 -37 89 -79 197 -81 210 -2 7 -6 19
-10 28 -4 10 18 88 54 195 34 99 68 199 76 224 8 25 18 54 23 65 9 19 55 145
57 155 6 30 123 270 160 328 19 29 34 54 34 57 0 4 76 119 93 140 32 41 150
212 181 264 45 74 145 274 161 321 1 3 6 16 12 30 6 14 18 42 26 63 9 20 14
37 12 37 -2 0 2 15 9 33 19 48 15 81 -9 85 -15 2 -27 -8 -43 -37 -21 -38 -45
-69 -83 -110 -41 -45 -146 -208 -244 -379 -31 -54 -60 -98 -69 -104 -6 -4 -8
-8 -3 -8 4 0 -23 -44 -59 -97 -62 -91 -150 -188 -203 -223 -48 -32 -147 -108
-163 -127 -17 -19 -26 -47 -27 -90 -2 -58 -62 3 -67 67 -2 27 4 44 23 66 13
16 28 34 31 39 16 25 112 95 162 118 97 45 147 99 216 232 55 106 181 324 194
335 3 3 21 29 39 58 18 28 38 52 44 52 6 0 7 3 4 6 -4 4 8 24 26 44 17 20 46
54 62 75 17 21 50 60 75 88 80 88 97 133 77 207 -8 33 -49 84 -59 74 -3 -2
-17 9 -31 26 -15 16 -33 30 -40 31 -6 0 -19 1 -27 3 -8 1 -46 -14 -85 -34z
m-936 -837 c-8 -25 -41 -66 -101 -125 -49 -49 -93 -88 -98 -88 -5 0 -15 -6
-22 -13 -27 -27 -114 -56 -157 -53 -61 5 -73 22 -29 40 19 8 41 16 48 18 16 4
49 29 106 83 61 58 74 67 155 122 72 48 100 63 107 57 2 -1 -2 -20 -9 -41z
m1292 -4983 c24 -41 56 -88 71 -105 16 -17 26 -36 22 -45 -6 -15 -10 -33 -19
-80 -3 -14 -9 -40 -14 -57 -5 -18 -7 -33 -5 -33 3 0 2 -6 -2 -12 -5 -7 -9 -19
-10 -28 -1 -8 -4 -26 -7 -40 -14 -70 -21 -107 -23 -130 -1 -14 -2 -25 -4 -25
-1 0 -3 -9 -4 -20 -28 -221 -34 -253 -67 -323 -16 -35 -32 -75 -35 -90 -4 -15
-10 -31 -14 -37 -3 -5 -12 -29 -20 -52 -17 -55 -31 -55 -25 0 3 23 8 87 10
142 12 227 16 277 29 370 1 11 6 47 10 80 4 33 10 71 12 85 9 50 21 289 23
455 1 68 -2 70 72 -55z"/>
<path d="M6131 4905 c-96 -32 -150 -128 -127 -225 15 -63 46 -100 106 -127 58
-26 95 -26 153 2 93 43 128 119 105 226 -5 20 -33 64 -58 89 -37 37 -123 54
-179 35z"/>
<path d="M5348 4632 l-37 -3 54 -109 c30 -60 55 -112 55 -115 0 -4 6 -21 14
-38 33 -71 102 -304 112 -376 2 -18 6 -36 8 -40 2 -3 7 -30 11 -60 4 -30 9
-63 11 -75 10 -51 15 -151 14 -266 -1 -139 -3 -160 -14 -178 -4 -6 -5 -16 -2
-20 6 -10 -33 -138 -65 -217 -12 -30 -49 -174 -55 -218 -7 -48 -12 -72 -14
-72 -1 0 -3 -18 -5 -40 -3 -42 -12 -129 -21 -205 -3 -25 -7 -58 -8 -75 -6 -72
-32 -155 -83 -264 -24 -51 -43 -95 -43 -97 0 -3 -12 -23 -27 -47 -14 -23 -26
-44 -26 -47 1 -6 -29 -65 -68 -137 -59 -106 -176 -340 -191 -383 -18 -47 -45
-160 -54 -220 -3 -19 -7 -42 -10 -50 -5 -18 -20 -139 -28 -235 -19 -206 -21
-265 -10 -369 10 -105 25 -127 101 -149 47 -14 166 -18 178 -6 2 3 -3 14 -13
25 -80 90 -110 166 -107 264 5 118 13 147 75 275 49 100 176 309 215 352 5 6
28 33 50 60 82 99 167 172 296 259 135 89 270 183 279 194 3 3 21 17 40 30 19
14 44 34 56 45 12 11 43 38 70 60 52 43 234 223 234 231 0 3 10 15 23 27 12
13 49 59 82 103 33 43 63 81 68 82 4 2 7 8 7 14 0 5 8 22 19 36 52 74 341 632
341 660 0 6 3 12 8 12 4 0 13 15 21 33 34 77 73 164 86 192 26 56 64 173 58
179 -4 3 -1 6 5 6 7 0 11 3 10 8 -1 6 7 47 28 137 23 101 47 322 47 445 0 76
-10 239 -17 275 -2 11 -7 39 -11 63 -5 34 -11 42 -28 43 -30 1 -455 1 -494 0
-28 -1 -33 -5 -33 -26 0 -18 9 -29 33 -41 27 -14 96 -64 144 -104 7 -5 16 -10
21 -10 39 0 57 -94 24 -123 -26 -23 -83 -22 -110 3 -12 11 -24 20 -27 20 -4 0
-13 6 -20 13 -8 6 -30 23 -50 37 -20 14 -46 34 -58 45 -18 17 -27 19 -54 11
-22 -6 -33 -15 -33 -27 0 -11 4 -19 8 -19 8 0 35 -46 36 -63 1 -4 6 -11 12
-15 6 -4 19 -23 30 -42 10 -19 25 -39 32 -43 6 -4 12 -14 12 -21 0 -8 7 -19
15 -26 20 -17 19 -73 -2 -96 -33 -35 -123 -20 -123 21 0 8 -6 18 -13 22 -7 4
-25 33 -40 63 -31 62 -47 88 -64 108 -7 7 -13 17 -13 22 0 15 -37 31 -54 24
-14 -5 -16 -47 -16 -359 0 -308 -2 -356 -16 -369 -25 -25 -70 -24 -95 3 -13
14 -15 63 -15 371 0 322 -1 355 -16 352 -9 -1 -19 2 -23 8 -15 25 -35 4 -79
-85 -26 -52 -46 -98 -45 -101 0 -4 -3 -10 -8 -13 -12 -9 -43 -70 -43 -85 0
-43 -92 -62 -123 -26 -21 25 -22 83 -2 100 8 7 15 20 15 29 0 9 5 22 12 29 7
7 8 12 3 12 -6 0 -6 3 0 8 22 15 115 216 105 226 -14 14 -102 -35 -187 -104
-7 -6 -16 -10 -21 -10 -5 0 -15 -6 -21 -13 -16 -20 -73 -19 -98 2 -27 22 -24
88 6 111 23 18 79 49 88 49 3 0 9 3 12 8 7 9 36 28 71 46 50 24 81 76 48 78
-46 2 -440 3 -470 1z"/>
</g>
</svg>
